# xmcd CD database file
#
# Track frame offsets:
#	150
#	46775
#	82145
#	123055
#	155513
#	180447
#	219438
#	260164
#
# Disc length: 3773 seconds
#
# Revision: 0
# Processed by: cddbd v1.5PL3 Copyright (c) Steve Scherf et al.
# Submitted via: CDex 1.51
#
DISCID=650ebb08
DTITLE=Pete White - Strange Scales
DYEAR=2003
DGENRE=Jazz
TTITLE0=Case in Hand
TTITLE1=Native Air
TTITLE2=Playship
TTITLE3=The Point Is
TTITLE4=Uncommon Knowledge
TTITLE5=Paul T
TTITLE6=Waves and Windows
TTITLE7=We May
EXTD=YEAR: 2003
EXTT0=
EXTT1=
EXTT2=
EXTT3=
EXTT4=
EXTT5=
EXTT6=
EXTT7=
PLAYORDER=
